<mxfile host="Electron" modified="2024-04-18T11:46:15.597Z" agent="Mozilla/5.0 (X11; Linux x86_64) AppleWebKit/537.36 (KHTML, like Gecko) draw.io/24.2.5 Chrome/120.0.6099.109 Electron/28.1.0 Safari/537.36" etag="E2UKm1G8Nd2vVjFPCGB7" version="24.2.5" type="device">
  <diagram name="Page-1" id="VEmoQHMQ7Cxl6G82HdyZ">
    <mxGraphModel dx="994" dy="635" grid="1" gridSize="10" guides="1" tooltips="1" connect="1" arrows="1" fold="1" page="1" pageScale="1" pageWidth="850" pageHeight="1400" math="0" shadow="0">
      <root>
        <mxCell id="0" />
        <mxCell id="1" parent="0" />
        <mxCell id="-tA9R_c8A8Zj2nTE4MN3-18" style="edgeStyle=orthogonalEdgeStyle;rounded=0;orthogonalLoop=1;jettySize=auto;html=1;" edge="1" parent="1" source="-tA9R_c8A8Zj2nTE4MN3-2" target="-tA9R_c8A8Zj2nTE4MN3-6">
          <mxGeometry relative="1" as="geometry">
            <Array as="points">
              <mxPoint x="620" y="80" />
            </Array>
          </mxGeometry>
        </mxCell>
        <mxCell id="-tA9R_c8A8Zj2nTE4MN3-2" value="&lt;font style=&quot;font-size: 25px;&quot;&gt;Функциональность приложения&lt;/font&gt;" style="rounded=1;whiteSpace=wrap;html=1;" vertex="1" parent="1">
          <mxGeometry x="290" y="20" width="270" height="90" as="geometry" />
        </mxCell>
        <mxCell id="-tA9R_c8A8Zj2nTE4MN3-10" style="edgeStyle=orthogonalEdgeStyle;rounded=0;orthogonalLoop=1;jettySize=auto;html=1;entryX=0.5;entryY=0;entryDx=0;entryDy=0;" edge="1" parent="1" source="-tA9R_c8A8Zj2nTE4MN3-3" target="-tA9R_c8A8Zj2nTE4MN3-9">
          <mxGeometry relative="1" as="geometry" />
        </mxCell>
        <mxCell id="-tA9R_c8A8Zj2nTE4MN3-3" value="&lt;font style=&quot;font-size: 20px;&quot;&gt;Блок аутентификации&lt;/font&gt;" style="rounded=1;whiteSpace=wrap;html=1;" vertex="1" parent="1">
          <mxGeometry x="140" y="210" width="180" height="70" as="geometry" />
        </mxCell>
        <mxCell id="-tA9R_c8A8Zj2nTE4MN3-5" style="edgeStyle=orthogonalEdgeStyle;rounded=0;orthogonalLoop=1;jettySize=auto;html=1;entryX=0.447;entryY=-0.069;entryDx=0;entryDy=0;entryPerimeter=0;" edge="1" parent="1" source="-tA9R_c8A8Zj2nTE4MN3-2" target="-tA9R_c8A8Zj2nTE4MN3-3">
          <mxGeometry relative="1" as="geometry">
            <Array as="points">
              <mxPoint x="221" y="80" />
            </Array>
          </mxGeometry>
        </mxCell>
        <mxCell id="-tA9R_c8A8Zj2nTE4MN3-26" style="edgeStyle=orthogonalEdgeStyle;rounded=0;orthogonalLoop=1;jettySize=auto;html=1;entryX=0.5;entryY=0;entryDx=0;entryDy=0;" edge="1" parent="1" source="-tA9R_c8A8Zj2nTE4MN3-6" target="-tA9R_c8A8Zj2nTE4MN3-25">
          <mxGeometry relative="1" as="geometry" />
        </mxCell>
        <mxCell id="-tA9R_c8A8Zj2nTE4MN3-6" value="&lt;span style=&quot;font-size: 20px;&quot;&gt;Блок приложения&lt;/span&gt;" style="rounded=1;whiteSpace=wrap;html=1;" vertex="1" parent="1">
          <mxGeometry x="540" y="210" width="160" height="70" as="geometry" />
        </mxCell>
        <mxCell id="-tA9R_c8A8Zj2nTE4MN3-9" value="" style="whiteSpace=wrap;html=1;aspect=fixed;" vertex="1" parent="1">
          <mxGeometry x="85" y="330" width="290" height="290" as="geometry" />
        </mxCell>
        <mxCell id="-tA9R_c8A8Zj2nTE4MN3-15" value="&lt;font style=&quot;font-size: 18px;&quot;&gt;регитсрация&lt;/font&gt;" style="text;html=1;align=center;verticalAlign=middle;whiteSpace=wrap;rounded=0;" vertex="1" parent="1">
          <mxGeometry x="120" y="340" width="220" height="30" as="geometry" />
        </mxCell>
        <mxCell id="-tA9R_c8A8Zj2nTE4MN3-16" value="&lt;font style=&quot;font-size: 18px;&quot;&gt;вход&lt;/font&gt;" style="text;html=1;align=center;verticalAlign=middle;whiteSpace=wrap;rounded=0;" vertex="1" parent="1">
          <mxGeometry x="120" y="370" width="220" height="30" as="geometry" />
        </mxCell>
        <mxCell id="-tA9R_c8A8Zj2nTE4MN3-17" value="&lt;font style=&quot;font-size: 18px;&quot;&gt;выход&lt;/font&gt;" style="text;html=1;align=center;verticalAlign=middle;whiteSpace=wrap;rounded=0;" vertex="1" parent="1">
          <mxGeometry x="120" y="400" width="220" height="30" as="geometry" />
        </mxCell>
        <mxCell id="-tA9R_c8A8Zj2nTE4MN3-19" value="&lt;font style=&quot;font-size: 18px;&quot;&gt;сброс пароля&lt;/font&gt;" style="text;html=1;align=center;verticalAlign=middle;whiteSpace=wrap;rounded=0;" vertex="1" parent="1">
          <mxGeometry x="120" y="430" width="220" height="30" as="geometry" />
        </mxCell>
        <mxCell id="-tA9R_c8A8Zj2nTE4MN3-21" value="&lt;font style=&quot;font-size: 18px;&quot;&gt;уведомленя при действиях&lt;/font&gt;" style="text;html=1;align=center;verticalAlign=middle;whiteSpace=wrap;rounded=0;" vertex="1" parent="1">
          <mxGeometry x="120" y="470" width="220" height="30" as="geometry" />
        </mxCell>
        <mxCell id="-tA9R_c8A8Zj2nTE4MN3-22" value="&lt;span style=&quot;font-size: 18px;&quot;&gt;валидация полей&lt;/span&gt;" style="text;html=1;align=center;verticalAlign=middle;whiteSpace=wrap;rounded=0;" vertex="1" parent="1">
          <mxGeometry x="120" y="520" width="220" height="30" as="geometry" />
        </mxCell>
        <mxCell id="-tA9R_c8A8Zj2nTE4MN3-24" value="&lt;span style=&quot;font-size: 18px;&quot;&gt;проверка данных&lt;/span&gt;" style="text;html=1;align=center;verticalAlign=middle;whiteSpace=wrap;rounded=0;" vertex="1" parent="1">
          <mxGeometry x="120" y="560" width="220" height="30" as="geometry" />
        </mxCell>
        <mxCell id="-tA9R_c8A8Zj2nTE4MN3-25" value="" style="whiteSpace=wrap;html=1;aspect=fixed;" vertex="1" parent="1">
          <mxGeometry x="475" y="320" width="290" height="290" as="geometry" />
        </mxCell>
        <mxCell id="-tA9R_c8A8Zj2nTE4MN3-27" value="&lt;span style=&quot;font-size: 18px;&quot;&gt;выбор вида диагностики&lt;/span&gt;" style="text;html=1;align=center;verticalAlign=middle;whiteSpace=wrap;rounded=0;" vertex="1" parent="1">
          <mxGeometry x="510" y="340" width="220" height="30" as="geometry" />
        </mxCell>
        <mxCell id="-tA9R_c8A8Zj2nTE4MN3-28" value="&lt;span style=&quot;font-size: 18px;&quot;&gt;загрузка фото&lt;/span&gt;" style="text;html=1;align=center;verticalAlign=middle;whiteSpace=wrap;rounded=0;" vertex="1" parent="1">
          <mxGeometry x="510" y="380" width="220" height="30" as="geometry" />
        </mxCell>
        <mxCell id="-tA9R_c8A8Zj2nTE4MN3-29" value="&lt;span style=&quot;font-size: 18px;&quot;&gt;отправка фото на нализ&lt;/span&gt;" style="text;html=1;align=center;verticalAlign=middle;whiteSpace=wrap;rounded=0;" vertex="1" parent="1">
          <mxGeometry x="510" y="430" width="220" height="30" as="geometry" />
        </mxCell>
        <mxCell id="-tA9R_c8A8Zj2nTE4MN3-30" value="&lt;span style=&quot;font-size: 18px;&quot;&gt;просмотр результатов&lt;/span&gt;" style="text;html=1;align=center;verticalAlign=middle;whiteSpace=wrap;rounded=0;" vertex="1" parent="1">
          <mxGeometry x="510" y="470" width="220" height="30" as="geometry" />
        </mxCell>
        <mxCell id="-tA9R_c8A8Zj2nTE4MN3-31" value="&lt;span style=&quot;font-size: 18px;&quot;&gt;отправка результатов по электроной почте&lt;/span&gt;" style="text;html=1;align=center;verticalAlign=middle;whiteSpace=wrap;rounded=0;" vertex="1" parent="1">
          <mxGeometry x="510" y="520" width="220" height="30" as="geometry" />
        </mxCell>
      </root>
    </mxGraphModel>
  </diagram>
</mxfile>
